<?xml version="1.0" standalone="no"?>
<!DOCTYPE svg PUBLIC "-//W3C//DTD SVG 20010904//EN"
 "http://www.w3.org/TR/2001/REC-SVG-20010904/DTD/svg10.dtd">
<svg version="1.0" xmlns="http://www.w3.org/2000/svg"
 width="1280.000000pt" height="1280.000000pt" viewBox="0 0 1280.000000 1280.000000"
 preserveAspectRatio="xMidYMid meet">
<g transform="translate(0.000000,1280.000000) scale(0.100000,-0.100000)"
fill="#000000" stroke="none">
<path d="M6135 12789 c-44 -4 -168 -15 -275 -24 -2527 -199 -4738 -1950 -5533
-4382 -155 -473 -254 -962 -292 -1438 -8 -104 -20 -237 -25 -295 -13 -134 -13
-366 0 -500 5 -58 17 -190 25 -295 130 -1648 939 -3218 2225 -4317 1012 -865
2293 -1400 3595 -1503 105 -8 237 -20 295 -25 134 -13 366 -13 500 0 58 5 191
17 295 25 2008 158 3865 1316 4927 3070 505 834 818 1798 893 2750 8 105 20
237 25 295 6 58 10 170 10 250 0 80 -4 192 -10 250 -5 58 -17 191 -25 295
-135 1714 -1006 3343 -2375 4441 -988 793 -2209 1281 -3445 1379 -104 8 -237
20 -295 25 -121 12 -398 11 -515 -1z"/>
</g>
</svg>
